<?xml version="1.0" encoding="utf-8" standalone="no"?>
<!DOCTYPE svg PUBLIC "-//W3C//DTD SVG 1.1//EN"
  "http://www.w3.org/Graphics/SVG/1.1/DTD/svg11.dtd">
<svg xmlns:xlink="http://www.w3.org/1999/xlink" width="460.8pt" height="345.6pt" viewBox="0 0 460.8 345.6" xmlns="http://www.w3.org/2000/svg" version="1.1">
 <metadata>
  <rdf:RDF xmlns:dc="http://purl.org/dc/elements/1.1/" xmlns:cc="http://creativecommons.org/ns#" xmlns:rdf="http://www.w3.org/1999/02/22-rdf-syntax-ns#">
   <cc:Work>
    <dc:type rdf:resource="http://purl.org/dc/dcmitype/StillImage"/>
    <dc:date>2023-12-05T14:12:01.460734</dc:date>
    <dc:format>image/svg+xml</dc:format>
    <dc:creator>
     <cc:Agent>
      <dc:title>Matplotlib v3.8.1, https://matplotlib.org/</dc:title>
     </cc:Agent>
    </dc:creator>
   </cc:Work>
  </rdf:RDF>
 </metadata>
 <defs>
  <style type="text/css">*{stroke-linejoin: round; stroke-linecap: butt}</style>
 </defs>
 <g id="figure_1">
  <g id="patch_1">
   <path d="M 0 345.6 
L 460.8 345.6 
L 460.8 0 
L 0 0 
z
" style="fill: #212946"/>
  </g>
  <g id="axes_1">
   <g id="patch_2">
    <path d="M 57.6 307.584 
L 414.72 307.584 
L 414.72 41.472 
L 57.6 41.472 
z
" style="fill: #212946"/>
   </g>
   <g id="matplotlib.axis_1">
    <g id="xtick_1">
     <g id="line2d_1">
      <path d="M 61.984021 307.584 
L 61.984021 41.472 
" clip-path="url(#p2dd5ab040b)" style="fill: none; stroke: #2a3459; stroke-width: 0.8; stroke-linecap: round"/>
     </g>
     <g id="line2d_2"/>
     <g id="text_1">
      <!-- 0 -->
      <g style="fill: #e6e6e6" transform="translate(58.802771 318.682437) scale(0.1 -0.1)">
       <defs>
        <path id="DejaVuSans-30" d="M 2034 4250 
Q 1547 4250 1301 3770 
Q 1056 3291 1056 2328 
Q 1056 1369 1301 889 
Q 1547 409 2034 409 
Q 2525 409 2770 889 
Q 3016 1369 3016 2328 
Q 3016 3291 2770 3770 
Q 2525 4250 2034 4250 
z
M 2034 4750 
Q 2819 4750 3233 4129 
Q 3647 3509 3647 2328 
Q 3647 1150 3233 529 
Q 2819 -91 2034 -91 
Q 1250 -91 836 529 
Q 422 1150 422 2328 
Q 422 3509 836 4129 
Q 1250 4750 2034 4750 
z
" transform="scale(0.015625)"/>
       </defs>
       <use xlink:href="#DejaVuSans-30"/>
      </g>
     </g>
    </g>
    <g id="xtick_2">
     <g id="line2d_3">
      <path d="M 109.378845 307.584 
L 109.378845 41.472 
" clip-path="url(#p2dd5ab040b)" style="fill: none; stroke: #2a3459; stroke-width: 0.8; stroke-linecap: round"/>
     </g>
     <g id="line2d_4"/>
     <g id="text_2">
      <!-- 2 -->
      <g style="fill: #e6e6e6" transform="translate(106.197595 318.682437) scale(0.1 -0.1)">
       <defs>
        <path id="DejaVuSans-32" d="M 1228 531 
L 3431 531 
L 3431 0 
L 469 0 
L 469 531 
Q 828 903 1448 1529 
Q 2069 2156 2228 2338 
Q 2531 2678 2651 2914 
Q 2772 3150 2772 3378 
Q 2772 3750 2511 3984 
Q 2250 4219 1831 4219 
Q 1534 4219 1204 4116 
Q 875 4013 500 3803 
L 500 4441 
Q 881 4594 1212 4672 
Q 1544 4750 1819 4750 
Q 2544 4750 2975 4387 
Q 3406 4025 3406 3419 
Q 3406 3131 3298 2873 
Q 3191 2616 2906 2266 
Q 2828 2175 2409 1742 
Q 1991 1309 1228 531 
z
" transform="scale(0.015625)"/>
       </defs>
       <use xlink:href="#DejaVuSans-32"/>
      </g>
     </g>
    </g>
    <g id="xtick_3">
     <g id="line2d_5">
      <path d="M 156.77367 307.584 
L 156.77367 41.472 
" clip-path="url(#p2dd5ab040b)" style="fill: none; stroke: #2a3459; stroke-width: 0.8; stroke-linecap: round"/>
     </g>
     <g id="line2d_6"/>
     <g id="text_3">
      <!-- 4 -->
      <g style="fill: #e6e6e6" transform="translate(153.59242 318.682437) scale(0.1 -0.1)">
       <defs>
        <path id="DejaVuSans-34" d="M 2419 4116 
L 825 1625 
L 2419 1625 
L 2419 4116 
z
M 2253 4666 
L 3047 4666 
L 3047 1625 
L 3713 1625 
L 3713 1100 
L 3047 1100 
L 3047 0 
L 2419 0 
L 2419 1100 
L 313 1100 
L 313 1709 
L 2253 4666 
z
" transform="scale(0.015625)"/>
       </defs>
       <use xlink:href="#DejaVuSans-34"/>
      </g>
     </g>
    </g>
    <g id="xtick_4">
     <g id="line2d_7">
      <path d="M 204.168494 307.584 
L 204.168494 41.472 
" clip-path="url(#p2dd5ab040b)" style="fill: none; stroke: #2a3459; stroke-width: 0.8; stroke-linecap: round"/>
     </g>
     <g id="line2d_8"/>
     <g id="text_4">
      <!-- 6 -->
      <g style="fill: #e6e6e6" transform="translate(200.987244 318.682437) scale(0.1 -0.1)">
       <defs>
        <path id="DejaVuSans-36" d="M 2113 2584 
Q 1688 2584 1439 2293 
Q 1191 2003 1191 1497 
Q 1191 994 1439 701 
Q 1688 409 2113 409 
Q 2538 409 2786 701 
Q 3034 994 3034 1497 
Q 3034 2003 2786 2293 
Q 2538 2584 2113 2584 
z
M 3366 4563 
L 3366 3988 
Q 3128 4100 2886 4159 
Q 2644 4219 2406 4219 
Q 1781 4219 1451 3797 
Q 1122 3375 1075 2522 
Q 1259 2794 1537 2939 
Q 1816 3084 2150 3084 
Q 2853 3084 3261 2657 
Q 3669 2231 3669 1497 
Q 3669 778 3244 343 
Q 2819 -91 2113 -91 
Q 1303 -91 875 529 
Q 447 1150 447 2328 
Q 447 3434 972 4092 
Q 1497 4750 2381 4750 
Q 2619 4750 2861 4703 
Q 3103 4656 3366 4563 
z
" transform="scale(0.015625)"/>
       </defs>
       <use xlink:href="#DejaVuSans-36"/>
      </g>
     </g>
    </g>
    <g id="xtick_5">
     <g id="line2d_9">
      <path d="M 251.563318 307.584 
L 251.563318 41.472 
" clip-path="url(#p2dd5ab040b)" style="fill: none; stroke: #2a3459; stroke-width: 0.8; stroke-linecap: round"/>
     </g>
     <g id="line2d_10"/>
     <g id="text_5">
      <!-- 8 -->
      <g style="fill: #e6e6e6" transform="translate(248.382068 318.682437) scale(0.1 -0.1)">
       <defs>
        <path id="DejaVuSans-38" d="M 2034 2216 
Q 1584 2216 1326 1975 
Q 1069 1734 1069 1313 
Q 1069 891 1326 650 
Q 1584 409 2034 409 
Q 2484 409 2743 651 
Q 3003 894 3003 1313 
Q 3003 1734 2745 1975 
Q 2488 2216 2034 2216 
z
M 1403 2484 
Q 997 2584 770 2862 
Q 544 3141 544 3541 
Q 544 4100 942 4425 
Q 1341 4750 2034 4750 
Q 2731 4750 3128 4425 
Q 3525 4100 3525 3541 
Q 3525 3141 3298 2862 
Q 3072 2584 2669 2484 
Q 3125 2378 3379 2068 
Q 3634 1759 3634 1313 
Q 3634 634 3220 271 
Q 2806 -91 2034 -91 
Q 1263 -91 848 271 
Q 434 634 434 1313 
Q 434 1759 690 2068 
Q 947 2378 1403 2484 
z
M 1172 3481 
Q 1172 3119 1398 2916 
Q 1625 2713 2034 2713 
Q 2441 2713 2670 2916 
Q 2900 3119 2900 3481 
Q 2900 3844 2670 4047 
Q 2441 4250 2034 4250 
Q 1625 4250 1398 4047 
Q 1172 3844 1172 3481 
z
" transform="scale(0.015625)"/>
       </defs>
       <use xlink:href="#DejaVuSans-38"/>
      </g>
     </g>
    </g>
    <g id="xtick_6">
     <g id="line2d_11">
      <path d="M 298.958142 307.584 
L 298.958142 41.472 
" clip-path="url(#p2dd5ab040b)" style="fill: none; stroke: #2a3459; stroke-width: 0.8; stroke-linecap: round"/>
     </g>
     <g id="line2d_12"/>
     <g id="text_6">
      <!-- 10 -->
      <g style="fill: #e6e6e6" transform="translate(292.595642 318.682437) scale(0.1 -0.1)">
       <defs>
        <path id="DejaVuSans-31" d="M 794 531 
L 1825 531 
L 1825 4091 
L 703 3866 
L 703 4441 
L 1819 4666 
L 2450 4666 
L 2450 531 
L 3481 531 
L 3481 0 
L 794 0 
L 794 531 
z
" transform="scale(0.015625)"/>
       </defs>
       <use xlink:href="#DejaVuSans-31"/>
       <use xlink:href="#DejaVuSans-30" x="63.623047"/>
      </g>
     </g>
    </g>
    <g id="xtick_7">
     <g id="line2d_13">
      <path d="M 346.352966 307.584 
L 346.352966 41.472 
" clip-path="url(#p2dd5ab040b)" style="fill: none; stroke: #2a3459; stroke-width: 0.8; stroke-linecap: round"/>
     </g>
     <g id="line2d_14"/>
     <g id="text_7">
      <!-- 12 -->
      <g style="fill: #e6e6e6" transform="translate(339.990466 318.682437) scale(0.1 -0.1)">
       <use xlink:href="#DejaVuSans-31"/>
       <use xlink:href="#DejaVuSans-32" x="63.623047"/>
      </g>
     </g>
    </g>
    <g id="xtick_8">
     <g id="line2d_15">
      <path d="M 393.74779 307.584 
L 393.74779 41.472 
" clip-path="url(#p2dd5ab040b)" style="fill: none; stroke: #2a3459; stroke-width: 0.8; stroke-linecap: round"/>
     </g>
     <g id="line2d_16"/>
     <g id="text_8">
      <!-- 14 -->
      <g style="fill: #e6e6e6" transform="translate(387.38529 318.682437) scale(0.1 -0.1)">
       <use xlink:href="#DejaVuSans-31"/>
       <use xlink:href="#DejaVuSans-34" x="63.623047"/>
      </g>
     </g>
    </g>
   </g>
   <g id="matplotlib.axis_2">
    <g id="ytick_1">
     <g id="line2d_17">
      <path d="M 57.6 303.642607 
L 414.72 303.642607 
" clip-path="url(#p2dd5ab040b)" style="fill: none; stroke: #2a3459; stroke-width: 0.8; stroke-linecap: round"/>
     </g>
     <g id="line2d_18"/>
     <g id="text_9">
      <!-- 14 -->
      <g style="fill: #e6e6e6" transform="translate(41.375 307.441825) scale(0.1 -0.1)">
       <use xlink:href="#DejaVuSans-31"/>
       <use xlink:href="#DejaVuSans-34" x="63.623047"/>
      </g>
     </g>
    </g>
    <g id="ytick_2">
     <g id="line2d_19">
      <path d="M 57.6 267.39991 
L 414.72 267.39991 
" clip-path="url(#p2dd5ab040b)" style="fill: none; stroke: #2a3459; stroke-width: 0.8; stroke-linecap: round"/>
     </g>
     <g id="line2d_20"/>
     <g id="text_10">
      <!-- 16 -->
      <g style="fill: #e6e6e6" transform="translate(41.375 271.199129) scale(0.1 -0.1)">
       <use xlink:href="#DejaVuSans-31"/>
       <use xlink:href="#DejaVuSans-36" x="63.623047"/>
      </g>
     </g>
    </g>
    <g id="ytick_3">
     <g id="line2d_21">
      <path d="M 57.6 231.157213 
L 414.72 231.157213 
" clip-path="url(#p2dd5ab040b)" style="fill: none; stroke: #2a3459; stroke-width: 0.8; stroke-linecap: round"/>
     </g>
     <g id="line2d_22"/>
     <g id="text_11">
      <!-- 18 -->
      <g style="fill: #e6e6e6" transform="translate(41.375 234.956432) scale(0.1 -0.1)">
       <use xlink:href="#DejaVuSans-31"/>
       <use xlink:href="#DejaVuSans-38" x="63.623047"/>
      </g>
     </g>
    </g>
    <g id="ytick_4">
     <g id="line2d_23">
      <path d="M 57.6 194.914517 
L 414.72 194.914517 
" clip-path="url(#p2dd5ab040b)" style="fill: none; stroke: #2a3459; stroke-width: 0.8; stroke-linecap: round"/>
     </g>
     <g id="line2d_24"/>
     <g id="text_12">
      <!-- 20 -->
      <g style="fill: #e6e6e6" transform="translate(41.375 198.713736) scale(0.1 -0.1)">
       <use xlink:href="#DejaVuSans-32"/>
       <use xlink:href="#DejaVuSans-30" x="63.623047"/>
      </g>
     </g>
    </g>
    <g id="ytick_5">
     <g id="line2d_25">
      <path d="M 57.6 158.67182 
L 414.72 158.67182 
" clip-path="url(#p2dd5ab040b)" style="fill: none; stroke: #2a3459; stroke-width: 0.8; stroke-linecap: round"/>
     </g>
     <g id="line2d_26"/>
     <g id="text_13">
      <!-- 22 -->
      <g style="fill: #e6e6e6" transform="translate(41.375 162.471039) scale(0.1 -0.1)">
       <use xlink:href="#DejaVuSans-32"/>
       <use xlink:href="#DejaVuSans-32" x="63.623047"/>
      </g>
     </g>
    </g>
    <g id="ytick_6">
     <g id="line2d_27">
      <path d="M 57.6 122.429124 
L 414.72 122.429124 
" clip-path="url(#p2dd5ab040b)" style="fill: none; stroke: #2a3459; stroke-width: 0.8; stroke-linecap: round"/>
     </g>
     <g id="line2d_28"/>
     <g id="text_14">
      <!-- 24 -->
      <g style="fill: #e6e6e6" transform="translate(41.375 126.228342) scale(0.1 -0.1)">
       <use xlink:href="#DejaVuSans-32"/>
       <use xlink:href="#DejaVuSans-34" x="63.623047"/>
      </g>
     </g>
    </g>
    <g id="ytick_7">
     <g id="line2d_29">
      <path d="M 57.6 86.186427 
L 414.72 86.186427 
" clip-path="url(#p2dd5ab040b)" style="fill: none; stroke: #2a3459; stroke-width: 0.8; stroke-linecap: round"/>
     </g>
     <g id="line2d_30"/>
     <g id="text_15">
      <!-- 26 -->
      <g style="fill: #e6e6e6" transform="translate(41.375 89.985646) scale(0.1 -0.1)">
       <use xlink:href="#DejaVuSans-32"/>
       <use xlink:href="#DejaVuSans-36" x="63.623047"/>
      </g>
     </g>
    </g>
    <g id="ytick_8">
     <g id="line2d_31">
      <path d="M 57.6 49.94373 
L 414.72 49.94373 
" clip-path="url(#p2dd5ab040b)" style="fill: none; stroke: #2a3459; stroke-width: 0.8; stroke-linecap: round"/>
     </g>
     <g id="line2d_32"/>
     <g id="text_16">
      <!-- 28 -->
      <g style="fill: #e6e6e6" transform="translate(41.375 53.742949) scale(0.1 -0.1)">
       <use xlink:href="#DejaVuSans-32"/>
       <use xlink:href="#DejaVuSans-38" x="63.623047"/>
      </g>
     </g>
    </g>
   </g>
   <g id="PathCollection_1">
    <defs>
     <path id="m07927a366c" d="M 0 3 
C 0.795609 3 1.55874 2.683901 2.12132 2.12132 
C 2.683901 1.55874 3 0.795609 3 0 
C 3 -0.795609 2.683901 -1.55874 2.12132 -2.12132 
C 1.55874 -2.683901 0.795609 -3 0 -3 
C -0.795609 -3 -1.55874 -2.683901 -2.12132 -2.12132 
C -2.683901 -1.55874 -3 -0.795609 -3 0 
C -3 0.795609 -2.683901 1.55874 -2.12132 2.12132 
C -1.55874 2.683901 -0.795609 3 0 3 
z
" style="stroke: #5df579"/>
    </defs>
    <g clip-path="url(#p2dd5ab040b)">
     <use xlink:href="#m07927a366c" x="105.824234" y="53.568" style="fill: #5df579; stroke: #5df579"/>
     <use xlink:href="#m07927a366c" x="93.975528" y="74.407551" style="fill: #5df579; stroke: #5df579"/>
     <use xlink:href="#m07927a366c" x="95.160398" y="136.020135" style="fill: #5df579; stroke: #5df579"/>
     <use xlink:href="#m07927a366c" x="82.126821" y="139.644404" style="fill: #5df579; stroke: #5df579"/>
     <use xlink:href="#m07927a366c" x="73.832727" y="152.329348" style="fill: #5df579; stroke: #5df579"/>
     <use xlink:href="#m07927a366c" x="77.387339" y="170.450697" style="fill: #5df579; stroke: #5df579"/>
     <use xlink:href="#m07927a366c" x="88.051175" y="157.765753" style="fill: #5df579; stroke: #5df579"/>
     <use xlink:href="#m07927a366c" x="93.975528" y="146.892944" style="fill: #5df579; stroke: #5df579"/>
     <use xlink:href="#m07927a366c" x="108.193975" y="144.174742" style="fill: #5df579; stroke: #5df579"/>
     <use xlink:href="#m07927a366c" x="118.85781" y="150.517213" style="fill: #5df579; stroke: #5df579"/>
     <use xlink:href="#m07927a366c" x="104.639363" y="158.67182" style="fill: #5df579; stroke: #5df579"/>
     <use xlink:href="#m07927a366c" x="121.227551" y="161.390022" style="fill: #5df579; stroke: #5df579"/>
     <use xlink:href="#m07927a366c" x="131.891387" y="169.544629" style="fill: #5df579; stroke: #5df579"/>
     <use xlink:href="#m07927a366c" x="107.009104" y="172.262831" style="fill: #5df579; stroke: #5df579"/>
     <use xlink:href="#m07927a366c" x="93.975528" y="168.638562" style="fill: #5df579; stroke: #5df579"/>
     <use xlink:href="#m07927a366c" x="93.975528" y="178.605303" style="fill: #5df579; stroke: #5df579"/>
     <use xlink:href="#m07927a366c" x="91.605786" y="188.572045" style="fill: #5df579; stroke: #5df579"/>
     <use xlink:href="#m07927a366c" x="103.454492" y="194.008449" style="fill: #5df579; stroke: #5df579"/>
     <use xlink:href="#m07927a366c" x="109.378845" y="184.041708" style="fill: #5df579; stroke: #5df579"/>
     <use xlink:href="#m07927a366c" x="121.227551" y="176.793169" style="fill: #5df579; stroke: #5df579"/>
     <use xlink:href="#m07927a366c" x="102.269622" y="212.129798" style="fill: #5df579; stroke: #5df579"/>
     <use xlink:href="#m07927a366c" x="118.85781" y="194.008449" style="fill: #5df579; stroke: #5df579"/>
     <use xlink:href="#m07927a366c" x="134.261128" y="186.75991" style="fill: #5df579; stroke: #5df579"/>
     <use xlink:href="#m07927a366c" x="149.664446" y="186.75991" style="fill: #5df579; stroke: #5df579"/>
     <use xlink:href="#m07927a366c" x="143.740093" y="196.726652" style="fill: #5df579; stroke: #5df579"/>
     <use xlink:href="#m07927a366c" x="131.891387" y="203.975191" style="fill: #5df579; stroke: #5df579"/>
     <use xlink:href="#m07927a366c" x="118.85781" y="205.787326" style="fill: #5df579; stroke: #5df579"/>
     <use xlink:href="#m07927a366c" x="118.85781" y="226.626876" style="fill: #5df579; stroke: #5df579"/>
     <use xlink:href="#m07927a366c" x="129.521646" y="217.566202" style="fill: #5df579; stroke: #5df579"/>
     <use xlink:href="#m07927a366c" x="139.00061" y="212.129798" style="fill: #5df579; stroke: #5df579"/>
     <use xlink:href="#m07927a366c" x="155.588799" y="202.163056" style="fill: #5df579; stroke: #5df579"/>
     <use xlink:href="#m07927a366c" x="125.967034" y="234.781483" style="fill: #5df579; stroke: #5df579"/>
     <use xlink:href="#m07927a366c" x="143.740093" y="230.251146" style="fill: #5df579; stroke: #5df579"/>
     <use xlink:href="#m07927a366c" x="152.034187" y="221.190472" style="fill: #5df579; stroke: #5df579"/>
     <use xlink:href="#m07927a366c" x="156.77367" y="211.22373" style="fill: #5df579; stroke: #5df579"/>
     <use xlink:href="#m07927a366c" x="167.437505" y="196.726652" style="fill: #5df579; stroke: #5df579"/>
     <use xlink:href="#m07927a366c" x="172.176987" y="210.317663" style="fill: #5df579; stroke: #5df579"/>
     <use xlink:href="#m07927a366c" x="176.91647" y="223.002607" style="fill: #5df579; stroke: #5df579"/>
     <use xlink:href="#m07927a366c" x="163.882893" y="230.251146" style="fill: #5df579; stroke: #5df579"/>
     <use xlink:href="#m07927a366c" x="141.370352" y="243.842157" style="fill: #5df579; stroke: #5df579"/>
     <use xlink:href="#m07927a366c" x="149.664446" y="261.963506" style="fill: #5df579; stroke: #5df579"/>
     <use xlink:href="#m07927a366c" x="166.252634" y="250.184629" style="fill: #5df579; stroke: #5df579"/>
     <use xlink:href="#m07927a366c" x="162.698023" y="242.030022" style="fill: #5df579; stroke: #5df579"/>
     <use xlink:href="#m07927a366c" x="175.731599" y="237.499685" style="fill: #5df579; stroke: #5df579"/>
     <use xlink:href="#m07927a366c" x="186.395435" y="226.626876" style="fill: #5df579; stroke: #5df579"/>
     <use xlink:href="#m07927a366c" x="198.244141" y="221.190472" style="fill: #5df579; stroke: #5df579"/>
     <use xlink:href="#m07927a366c" x="187.580305" y="208.505528" style="fill: #5df579; stroke: #5df579"/>
     <use xlink:href="#m07927a366c" x="205.353364" y="203.069124" style="fill: #5df579; stroke: #5df579"/>
     <use xlink:href="#m07927a366c" x="216.0172" y="214.848" style="fill: #5df579; stroke: #5df579"/>
     <use xlink:href="#m07927a366c" x="205.353364" y="227.532944" style="fill: #5df579; stroke: #5df579"/>
     <use xlink:href="#m07927a366c" x="194.689529" y="234.781483" style="fill: #5df579; stroke: #5df579"/>
     <use xlink:href="#m07927a366c" x="191.134917" y="246.56036" style="fill: #5df579; stroke: #5df579"/>
     <use xlink:href="#m07927a366c" x="181.655952" y="257.433169" style="fill: #5df579; stroke: #5df579"/>
     <use xlink:href="#m07927a366c" x="169.807246" y="266.493843" style="fill: #5df579; stroke: #5df579"/>
     <use xlink:href="#m07927a366c" x="179.286211" y="277.366652" style="fill: #5df579; stroke: #5df579"/>
     <use xlink:href="#m07927a366c" x="200.613882" y="289.145528" style="fill: #5df579; stroke: #5df579"/>
     <use xlink:href="#m07927a366c" x="194.689529" y="280.084854" style="fill: #5df579; stroke: #5df579"/>
     <use xlink:href="#m07927a366c" x="195.874399" y="267.39991" style="fill: #5df579; stroke: #5df579"/>
     <use xlink:href="#m07927a366c" x="202.983623" y="252.902831" style="fill: #5df579; stroke: #5df579"/>
     <use xlink:href="#m07927a366c" x="210.092847" y="260.151371" style="fill: #5df579; stroke: #5df579"/>
     <use xlink:href="#m07927a366c" x="206.538235" y="241.123955" style="fill: #5df579; stroke: #5df579"/>
     <use xlink:href="#m07927a366c" x="218.386941" y="237.499685" style="fill: #5df579; stroke: #5df579"/>
     <use xlink:href="#m07927a366c" x="219.571812" y="225.720809" style="fill: #5df579; stroke: #5df579"/>
     <use xlink:href="#m07927a366c" x="234.975129" y="224.814742" style="fill: #5df579; stroke: #5df579"/>
     <use xlink:href="#m07927a366c" x="248.008706" y="225.720809" style="fill: #5df579; stroke: #5df579"/>
     <use xlink:href="#m07927a366c" x="231.420518" y="234.781483" style="fill: #5df579; stroke: #5df579"/>
     <use xlink:href="#m07927a366c" x="242.084353" y="236.593618" style="fill: #5df579; stroke: #5df579"/>
     <use xlink:href="#m07927a366c" x="220.756682" y="244.748225" style="fill: #5df579; stroke: #5df579"/>
     <use xlink:href="#m07927a366c" x="234.975129" y="244.748225" style="fill: #5df579; stroke: #5df579"/>
     <use xlink:href="#m07927a366c" x="220.756682" y="252.902831" style="fill: #5df579; stroke: #5df579"/>
     <use xlink:href="#m07927a366c" x="234.975129" y="255.621034" style="fill: #5df579; stroke: #5df579"/>
     <use xlink:href="#m07927a366c" x="221.941553" y="261.963506" style="fill: #5df579; stroke: #5df579"/>
     <use xlink:href="#m07927a366c" x="237.344871" y="263.77564" style="fill: #5df579; stroke: #5df579"/>
     <use xlink:href="#m07927a366c" x="217.20207" y="271.930247" style="fill: #5df579; stroke: #5df579"/>
     <use xlink:href="#m07927a366c" x="236.16" y="271.02418" style="fill: #5df579; stroke: #5df579"/>
     <use xlink:href="#m07927a366c" x="223.126423" y="286.427326" style="fill: #5df579; stroke: #5df579"/>
     <use xlink:href="#m07927a366c" x="238.529741" y="283.709124" style="fill: #5df579; stroke: #5df579"/>
     <use xlink:href="#m07927a366c" x="224.311294" y="295.488" style="fill: #5df579; stroke: #5df579"/>
     <use xlink:href="#m07927a366c" x="242.084353" y="292.769798" style="fill: #5df579; stroke: #5df579"/>
     <use xlink:href="#m07927a366c" x="264.596894" y="291.86373" style="fill: #5df579; stroke: #5df579"/>
     <use xlink:href="#m07927a366c" x="256.3028" y="276.460584" style="fill: #5df579; stroke: #5df579"/>
     <use xlink:href="#m07927a366c" x="249.193577" y="265.587775" style="fill: #5df579; stroke: #5df579"/>
     <use xlink:href="#m07927a366c" x="252.748188" y="258.339236" style="fill: #5df579; stroke: #5df579"/>
     <use xlink:href="#m07927a366c" x="246.823835" y="249.278562" style="fill: #5df579; stroke: #5df579"/>
     <use xlink:href="#m07927a366c" x="251.563318" y="241.123955" style="fill: #5df579; stroke: #5df579"/>
     <use xlink:href="#m07927a366c" x="261.042283" y="229.345079" style="fill: #5df579; stroke: #5df579"/>
     <use xlink:href="#m07927a366c" x="266.966636" y="235.687551" style="fill: #5df579; stroke: #5df579"/>
     <use xlink:href="#m07927a366c" x="272.890989" y="247.466427" style="fill: #5df579; stroke: #5df579"/>
     <use xlink:href="#m07927a366c" x="261.042283" y="247.466427" style="fill: #5df579; stroke: #5df579"/>
     <use xlink:href="#m07927a366c" x="266.966636" y="255.621034" style="fill: #5df579; stroke: #5df579"/>
     <use xlink:href="#m07927a366c" x="262.227153" y="266.493843" style="fill: #5df579; stroke: #5df579"/>
     <use xlink:href="#m07927a366c" x="271.706118" y="279.178787" style="fill: #5df579; stroke: #5df579"/>
     <use xlink:href="#m07927a366c" x="289.479177" y="280.084854" style="fill: #5df579; stroke: #5df579"/>
     <use xlink:href="#m07927a366c" x="278.815342" y="267.39991" style="fill: #5df579; stroke: #5df579"/>
     <use xlink:href="#m07927a366c" x="303.697624" y="267.39991" style="fill: #5df579; stroke: #5df579"/>
     <use xlink:href="#m07927a366c" x="287.109436" y="255.621034" style="fill: #5df579; stroke: #5df579"/>
     <use xlink:href="#m07927a366c" x="316.731201" y="256.527101" style="fill: #5df579; stroke: #5df579"/>
     <use xlink:href="#m07927a366c" x="309.621977" y="245.654292" style="fill: #5df579; stroke: #5df579"/>
     <use xlink:href="#m07927a366c" x="295.40353" y="247.466427" style="fill: #5df579; stroke: #5df579"/>
     <use xlink:href="#m07927a366c" x="284.739695" y="238.405753" style="fill: #5df579; stroke: #5df579"/>
     <use xlink:href="#m07927a366c" x="302.512754" y="236.593618" style="fill: #5df579; stroke: #5df579"/>
     <use xlink:href="#m07927a366c" x="295.40353" y="228.439011" style="fill: #5df579; stroke: #5df579"/>
     <use xlink:href="#m07927a366c" x="276.445601" y="226.626876" style="fill: #5df579; stroke: #5df579"/>
     <use xlink:href="#m07927a366c" x="282.369954" y="218.47227" style="fill: #5df579; stroke: #5df579"/>
     <use xlink:href="#m07927a366c" x="278.815342" y="210.317663" style="fill: #5df579; stroke: #5df579"/>
     <use xlink:href="#m07927a366c" x="263.412024" y="216.660135" style="fill: #5df579; stroke: #5df579"/>
     <use xlink:href="#m07927a366c" x="338.058872" y="241.123955" style="fill: #5df579; stroke: #5df579"/>
     <use xlink:href="#m07927a366c" x="325.025295" y="237.499685" style="fill: #5df579; stroke: #5df579"/>
     <use xlink:href="#m07927a366c" x="308.437107" y="226.626876" style="fill: #5df579; stroke: #5df579"/>
     <use xlink:href="#m07927a366c" x="298.958142" y="213.941933" style="fill: #5df579; stroke: #5df579"/>
     <use xlink:href="#m07927a366c" x="345.168096" y="226.626876" style="fill: #5df579; stroke: #5df579"/>
     <use xlink:href="#m07927a366c" x="328.579907" y="223.908674" style="fill: #5df579; stroke: #5df579"/>
     <use xlink:href="#m07927a366c" x="313.176589" y="214.848" style="fill: #5df579; stroke: #5df579"/>
     <use xlink:href="#m07927a366c" x="326.210166" y="213.035865" style="fill: #5df579; stroke: #5df579"/>
     <use xlink:href="#m07927a366c" x="343.983225" y="215.754067" style="fill: #5df579; stroke: #5df579"/>
     <use xlink:href="#m07927a366c" x="360.571413" y="214.848" style="fill: #5df579; stroke: #5df579"/>
     <use xlink:href="#m07927a366c" x="341.613484" y="204.881258" style="fill: #5df579; stroke: #5df579"/>
     <use xlink:href="#m07927a366c" x="323.840425" y="204.881258" style="fill: #5df579; stroke: #5df579"/>
     <use xlink:href="#m07927a366c" x="306.067366" y="205.787326" style="fill: #5df579; stroke: #5df579"/>
     <use xlink:href="#m07927a366c" x="296.588401" y="199.444854" style="fill: #5df579; stroke: #5df579"/>
     <use xlink:href="#m07927a366c" x="309.621977" y="194.914517" style="fill: #5df579; stroke: #5df579"/>
     <use xlink:href="#m07927a366c" x="371.235249" y="196.726652" style="fill: #5df579; stroke: #5df579"/>
     <use xlink:href="#m07927a366c" x="358.201672" y="199.444854" style="fill: #5df579; stroke: #5df579"/>
     <use xlink:href="#m07927a366c" x="343.983225" y="194.008449" style="fill: #5df579; stroke: #5df579"/>
     <use xlink:href="#m07927a366c" x="327.395036" y="190.38418" style="fill: #5df579; stroke: #5df579"/>
     <use xlink:href="#m07927a366c" x="319.100942" y="179.511371" style="fill: #5df579; stroke: #5df579"/>
     <use xlink:href="#m07927a366c" x="332.134519" y="172.262831" style="fill: #5df579; stroke: #5df579"/>
     <use xlink:href="#m07927a366c" x="339.243743" y="184.041708" style="fill: #5df579; stroke: #5df579"/>
     <use xlink:href="#m07927a366c" x="353.46219" y="186.75991" style="fill: #5df579; stroke: #5df579"/>
     <use xlink:href="#m07927a366c" x="368.865508" y="184.947775" style="fill: #5df579; stroke: #5df579"/>
     <use xlink:href="#m07927a366c" x="359.386543" y="177.699236" style="fill: #5df579; stroke: #5df579"/>
     <use xlink:href="#m07927a366c" x="347.537837" y="172.262831" style="fill: #5df579; stroke: #5df579"/>
     <use xlink:href="#m07927a366c" x="340.428613" y="156.859685" style="fill: #5df579; stroke: #5df579"/>
     <use xlink:href="#m07927a366c" x="352.277319" y="161.390022" style="fill: #5df579; stroke: #5df579"/>
     <use xlink:href="#m07927a366c" x="365.310896" y="167.732494" style="fill: #5df579; stroke: #5df579"/>
     <use xlink:href="#m07927a366c" x="383.083955" y="176.793169" style="fill: #5df579; stroke: #5df579"/>
     <use xlink:href="#m07927a366c" x="384.268825" y="165.92036" style="fill: #5df579; stroke: #5df579"/>
     <use xlink:href="#m07927a366c" x="368.865508" y="158.67182" style="fill: #5df579; stroke: #5df579"/>
     <use xlink:href="#m07927a366c" x="358.201672" y="154.141483" style="fill: #5df579; stroke: #5df579"/>
     <use xlink:href="#m07927a366c" x="351.092449" y="143.268674" style="fill: #5df579; stroke: #5df579"/>
     <use xlink:href="#m07927a366c" x="362.941155" y="134.208" style="fill: #5df579; stroke: #5df579"/>
     <use xlink:href="#m07927a366c" x="370.050378" y="145.986876" style="fill: #5df579; stroke: #5df579"/>
     <use xlink:href="#m07927a366c" x="383.083955" y="155.047551" style="fill: #5df579; stroke: #5df579"/>
     <use xlink:href="#m07927a366c" x="394.932661" y="154.141483" style="fill: #5df579; stroke: #5df579"/>
     <use xlink:href="#m07927a366c" x="398.487273" y="139.644404" style="fill: #5df579; stroke: #5df579"/>
     <use xlink:href="#m07927a366c" x="396.117532" y="129.677663" style="fill: #5df579; stroke: #5df579"/>
     <use xlink:href="#m07927a366c" x="381.899084" y="144.174742" style="fill: #5df579; stroke: #5df579"/>
     <use xlink:href="#m07927a366c" x="378.344472" y="131.489798" style="fill: #5df579; stroke: #5df579"/>
     <use xlink:href="#m07927a366c" x="377.159602" y="122.429124" style="fill: #5df579; stroke: #5df579"/>
     <use xlink:href="#m07927a366c" x="234.975129" y="210.317663" style="fill: #5df579; stroke: #5df579"/>
     <use xlink:href="#m07927a366c" x="250.378447" y="206.693393" style="fill: #5df579; stroke: #5df579"/>
     <use xlink:href="#m07927a366c" x="244.454094" y="194.008449" style="fill: #5df579; stroke: #5df579"/>
     <use xlink:href="#m07927a366c" x="221.941553" y="196.726652" style="fill: #5df579; stroke: #5df579"/>
     <use xlink:href="#m07927a366c" x="186.395435" y="188.572045" style="fill: #5df579; stroke: #5df579"/>
     <use xlink:href="#m07927a366c" x="207.723106" y="182.229573" style="fill: #5df579; stroke: #5df579"/>
     <use xlink:href="#m07927a366c" x="227.865906" y="182.229573" style="fill: #5df579; stroke: #5df579"/>
     <use xlink:href="#m07927a366c" x="242.084353" y="173.168899" style="fill: #5df579; stroke: #5df579"/>
     <use xlink:href="#m07927a366c" x="264.596894" y="184.041708" style="fill: #5df579; stroke: #5df579"/>
     <use xlink:href="#m07927a366c" x="283.554824" y="185.853843" style="fill: #5df579; stroke: #5df579"/>
     <use xlink:href="#m07927a366c" x="258.672541" y="168.638562" style="fill: #5df579; stroke: #5df579"/>
     <use xlink:href="#m07927a366c" x="249.193577" y="165.92036" style="fill: #5df579; stroke: #5df579"/>
     <use xlink:href="#m07927a366c" x="231.420518" y="163.202157" style="fill: #5df579; stroke: #5df579"/>
     <use xlink:href="#m07927a366c" x="220.756682" y="171.356764" style="fill: #5df579; stroke: #5df579"/>
     <use xlink:href="#m07927a366c" x="185.210564" y="174.981034" style="fill: #5df579; stroke: #5df579"/>
     <use xlink:href="#m07927a366c" x="208.907976" y="159.577888" style="fill: #5df579; stroke: #5df579"/>
     <use xlink:href="#m07927a366c" x="221.941553" y="151.423281" style="fill: #5df579; stroke: #5df579"/>
     <use xlink:href="#m07927a366c" x="207.723106" y="149.611146" style="fill: #5df579; stroke: #5df579"/>
     <use xlink:href="#m07927a366c" x="195.874399" y="155.047551" style="fill: #5df579; stroke: #5df579"/>
     <use xlink:href="#m07927a366c" x="172.176987" y="148.705079" style="fill: #5df579; stroke: #5df579"/>
     <use xlink:href="#m07927a366c" x="159.143411" y="132.395865" style="fill: #5df579; stroke: #5df579"/>
     <use xlink:href="#m07927a366c" x="188.765176" y="144.174742" style="fill: #5df579; stroke: #5df579"/>
     <use xlink:href="#m07927a366c" x="237.344871" y="147.799011" style="fill: #5df579; stroke: #5df579"/>
     <use xlink:href="#m07927a366c" x="245.638965" y="156.859685" style="fill: #5df579; stroke: #5df579"/>
     <use xlink:href="#m07927a366c" x="263.412024" y="153.235416" style="fill: #5df579; stroke: #5df579"/>
     <use xlink:href="#m07927a366c" x="282.369954" y="158.67182" style="fill: #5df579; stroke: #5df579"/>
     <use xlink:href="#m07927a366c" x="291.848918" y="141.456539" style="fill: #5df579; stroke: #5df579"/>
     <use xlink:href="#m07927a366c" x="270.521248" y="141.456539" style="fill: #5df579; stroke: #5df579"/>
     <use xlink:href="#m07927a366c" x="252.748188" y="142.362607" style="fill: #5df579; stroke: #5df579"/>
     <use xlink:href="#m07927a366c" x="242.084353" y="137.83227" style="fill: #5df579; stroke: #5df579"/>
     <use xlink:href="#m07927a366c" x="224.311294" y="140.550472" style="fill: #5df579; stroke: #5df579"/>
     <use xlink:href="#m07927a366c" x="208.907976" y="136.020135" style="fill: #5df579; stroke: #5df579"/>
     <use xlink:href="#m07927a366c" x="197.05927" y="133.301933" style="fill: #5df579; stroke: #5df579"/>
     <use xlink:href="#m07927a366c" x="182.840823" y="130.58373" style="fill: #5df579; stroke: #5df579"/>
     <use xlink:href="#m07927a366c" x="169.807246" y="119.710921" style="fill: #5df579; stroke: #5df579"/>
     <use xlink:href="#m07927a366c" x="192.319788" y="122.429124" style="fill: #5df579; stroke: #5df579"/>
     <use xlink:href="#m07927a366c" x="206.538235" y="121.523056" style="fill: #5df579; stroke: #5df579"/>
     <use xlink:href="#m07927a366c" x="216.0172" y="129.677663" style="fill: #5df579; stroke: #5df579"/>
     <use xlink:href="#m07927a366c" x="221.941553" y="123.335191" style="fill: #5df579; stroke: #5df579"/>
     <use xlink:href="#m07927a366c" x="234.975129" y="126.959461" style="fill: #5df579; stroke: #5df579"/>
     <use xlink:href="#m07927a366c" x="258.672541" y="133.301933" style="fill: #5df579; stroke: #5df579"/>
     <use xlink:href="#m07927a366c" x="272.890989" y="127.865528" style="fill: #5df579; stroke: #5df579"/>
     <use xlink:href="#m07927a366c" x="288.294307" y="128.771596" style="fill: #5df579; stroke: #5df579"/>
     <use xlink:href="#m07927a366c" x="307.252236" y="120.616989" style="fill: #5df579; stroke: #5df579"/>
     <use xlink:href="#m07927a366c" x="250.378447" y="121.523056" style="fill: #5df579; stroke: #5df579"/>
     <use xlink:href="#m07927a366c" x="155.588799" y="115.180584" style="fill: #5df579; stroke: #5df579"/>
     <use xlink:href="#m07927a366c" x="150.849317" y="99.777438" style="fill: #5df579; stroke: #5df579"/>
     <use xlink:href="#m07927a366c" x="154.403928" y="87.092494" style="fill: #5df579; stroke: #5df579"/>
     <use xlink:href="#m07927a366c" x="169.807246" y="74.407551" style="fill: #5df579; stroke: #5df579"/>
     <use xlink:href="#m07927a366c" x="186.395435" y="72.595416" style="fill: #5df579; stroke: #5df579"/>
     <use xlink:href="#m07927a366c" x="216.0172" y="57.19227" style="fill: #5df579; stroke: #5df579"/>
     <use xlink:href="#m07927a366c" x="238.529741" y="57.19227" style="fill: #5df579; stroke: #5df579"/>
     <use xlink:href="#m07927a366c" x="259.857412" y="61.722607" style="fill: #5df579; stroke: #5df579"/>
     <use xlink:href="#m07927a366c" x="281.185083" y="64.440809" style="fill: #5df579; stroke: #5df579"/>
     <use xlink:href="#m07927a366c" x="297.773271" y="77.125753" style="fill: #5df579; stroke: #5df579"/>
     <use xlink:href="#m07927a366c" x="311.991719" y="93.434966" style="fill: #5df579; stroke: #5df579"/>
     <use xlink:href="#m07927a366c" x="296.588401" y="105.213843" style="fill: #5df579; stroke: #5df579"/>
     <use xlink:href="#m07927a366c" x="280.000212" y="113.368449" style="fill: #5df579; stroke: #5df579"/>
     <use xlink:href="#m07927a366c" x="264.596894" y="118.804854" style="fill: #5df579; stroke: #5df579"/>
     <use xlink:href="#m07927a366c" x="270.521248" y="107.932045" style="fill: #5df579; stroke: #5df579"/>
     <use xlink:href="#m07927a366c" x="280.000212" y="97.965303" style="fill: #5df579; stroke: #5df579"/>
     <use xlink:href="#m07927a366c" x="288.294307" y="85.28036" style="fill: #5df579; stroke: #5df579"/>
     <use xlink:href="#m07927a366c" x="276.445601" y="75.313618" style="fill: #5df579; stroke: #5df579"/>
     <use xlink:href="#m07927a366c" x="270.521248" y="89.810697" style="fill: #5df579; stroke: #5df579"/>
     <use xlink:href="#m07927a366c" x="255.11793" y="79.843955" style="fill: #5df579; stroke: #5df579"/>
     <use xlink:href="#m07927a366c" x="252.748188" y="89.810697" style="fill: #5df579; stroke: #5df579"/>
     <use xlink:href="#m07927a366c" x="259.857412" y="100.683506" style="fill: #5df579; stroke: #5df579"/>
     <use xlink:href="#m07927a366c" x="249.193577" y="98.871371" style="fill: #5df579; stroke: #5df579"/>
     <use xlink:href="#m07927a366c" x="252.748188" y="109.74418" style="fill: #5df579; stroke: #5df579"/>
     <use xlink:href="#m07927a366c" x="234.975129" y="115.180584" style="fill: #5df579; stroke: #5df579"/>
     <use xlink:href="#m07927a366c" x="240.899482" y="107.025978" style="fill: #5df579; stroke: #5df579"/>
     <use xlink:href="#m07927a366c" x="224.311294" y="114.274517" style="fill: #5df579; stroke: #5df579"/>
     <use xlink:href="#m07927a366c" x="210.092847" y="110.650247" style="fill: #5df579; stroke: #5df579"/>
     <use xlink:href="#m07927a366c" x="193.504658" y="113.368449" style="fill: #5df579; stroke: #5df579"/>
     <use xlink:href="#m07927a366c" x="172.176987" y="102.49564" style="fill: #5df579; stroke: #5df579"/>
     <use xlink:href="#m07927a366c" x="180.471082" y="94.341034" style="fill: #5df579; stroke: #5df579"/>
     <use xlink:href="#m07927a366c" x="193.504658" y="84.374292" style="fill: #5df579; stroke: #5df579"/>
     <use xlink:href="#m07927a366c" x="193.504658" y="99.777438" style="fill: #5df579; stroke: #5df579"/>
     <use xlink:href="#m07927a366c" x="208.907976" y="100.683506" style="fill: #5df579; stroke: #5df579"/>
     <use xlink:href="#m07927a366c" x="223.126423" y="103.401708" style="fill: #5df579; stroke: #5df579"/>
     <use xlink:href="#m07927a366c" x="237.344871" y="99.777438" style="fill: #5df579; stroke: #5df579"/>
     <use xlink:href="#m07927a366c" x="219.571812" y="96.153169" style="fill: #5df579; stroke: #5df579"/>
     <use xlink:href="#m07927a366c" x="207.723106" y="89.810697" style="fill: #5df579; stroke: #5df579"/>
     <use xlink:href="#m07927a366c" x="216.0172" y="84.374292" style="fill: #5df579; stroke: #5df579"/>
     <use xlink:href="#m07927a366c" x="218.386941" y="75.313618" style="fill: #5df579; stroke: #5df579"/>
     <use xlink:href="#m07927a366c" x="244.454094" y="74.407551" style="fill: #5df579; stroke: #5df579"/>
     <use xlink:href="#m07927a366c" x="239.714612" y="82.562157" style="fill: #5df579; stroke: #5df579"/>
     <use xlink:href="#m07927a366c" x="239.714612" y="92.528899" style="fill: #5df579; stroke: #5df579"/>
     <use xlink:href="#m07927a366c" x="229.050776" y="88.904629" style="fill: #5df579; stroke: #5df579"/>
     <use xlink:href="#m07927a366c" x="225.496165" y="65.346876" style="fill: #5df579; stroke: #5df579"/>
     <use xlink:href="#m07927a366c" x="207.723106" y="69.877213" style="fill: #5df579; stroke: #5df579"/>
    </g>
   </g>
   <g id="patch_3">
    <path d="M 57.6 307.584 
L 57.6 41.472 
" style="fill: none"/>
   </g>
   <g id="patch_4">
    <path d="M 414.72 307.584 
L 414.72 41.472 
" style="fill: none"/>
   </g>
   <g id="patch_5">
    <path d="M 57.6 307.584 
L 414.72 307.584 
" style="fill: none"/>
   </g>
   <g id="patch_6">
    <path d="M 57.6 41.472 
L 414.72 41.472 
" style="fill: none"/>
   </g>
  </g>
 </g>
 <defs>
  <clipPath id="p2dd5ab040b">
   <rect x="57.6" y="41.472" width="357.12" height="266.112"/>
  </clipPath>
 </defs>
</svg>
